# xmcd
#
# Track frame offsets: 
#        150
#        11482
#        29375
#        42075
#        59630
#        72952
#        84442
#        103642
#        129382
#        143507
#        157122
#        169620
#        182867
#        193750
#        206662
#        229450
#        251510
#        262575
#        276120
#        286187
#        301985
#
# Disc length: 4218 seconds
#
# Revision: 2
# Processed by: cddbd v1.5.2PL0 Copyright (c) Steve Scherf et al.
# Submitted via: ExactAudioCopyFreeDBPlugin 1.0
#
DISCID=26107815
DTITLE=Nina Simone - Released
DYEAR=1996
DGENRE=Soul/Blues
TTITLE0=The Backlash Blues
TTITLE1=Blues For Mama
TTITLE2=Go To Hell
TTITLE3=I Shall Be Released
TTITLE4=It Be's That Way Sometimes
TTITLE5=I Want A Little Sugar In My Bowl
TTITLE6=My Man's Gone Now
TTITLE7=Why? (The King Of Love Is Dead)
TTITLE8=I Wish I Knew How It Would Feel To Be Free
TTITLE9=Do What You Gotta Do
TTITLE10=Do I Move You
TTITLE11=In The Dark
TTITLE12=The Look Of Love
TTITLE13=Since I Fell For You
TTITLE14=Mr Bojangles
TTITLE15=Just Like A Woman
TTITLE16=Turn Me On
TTITLE17=Nobody's Fault But Mine
TTITLE18=Ain't Got No - I Got Life (Live)
TTITLE19=I Loves You Porgy (Live)
TTITLE20=Gin House Blues (Live)
EXTD=
EXTT0=
EXTT1=
EXTT2=
EXTT3=
EXTT4=
EXTT5=
EXTT6=
EXTT7=
EXTT8=
EXTT9=
EXTT10=
EXTT11=
EXTT12=
EXTT13=
EXTT14=
EXTT15=
EXTT16=
EXTT17=
EXTT18=
EXTT19=
EXTT20=
PLAYORDER=
